<?xml version="1.0" encoding="UTF-8"?>
<svg xmlns="http://www.w3.org/2000/svg" xmlns:xlink="http://www.w3.org/1999/xlink" width="232" height="162.444824" viewBox="0 0 232 162.444824">
<defs>
<filter id="filter-remove-color" x="0%" y="0%" width="100%" height="100%">
<feColorMatrix color-interpolation-filters="sRGB" values="0 0 0 0 1 0 0 0 0 1 0 0 0 0 1 0 0 0 1 0" />
</filter>
<clipPath id="clip-0">
<path clip-rule="nonzero" d="M 927 35 L 949.195312 35 L 949.195312 53 L 927 53 Z M 927 35 "/>
</clipPath>
<clipPath id="clip-1">
<path clip-rule="nonzero" d="M 1.558594 0 L 949.195312 0 L 949.195312 161.890625 L 1.558594 161.890625 Z M 1.558594 0 "/>
</clipPath>
<clipPath id="clip-2">
<path clip-rule="nonzero" d="M 0.558594 6 L 296 6 L 296 142 L 0.558594 142 Z M 0.558594 6 "/>
</clipPath>
<clipPath id="clip-3">
<rect x="0" y="0" width="949" height="162"/>
</clipPath>
<g id="source-7" clip-path="url(#clip-3)">
<g clip-path="url(#clip-2)">
<path fill-rule="nonzero" fill="rgb(0%, 0%, 0%)" fill-opacity="1" d="M 0.558594 6.1875 L 295.46875 6.1875 L 295.46875 141.980469 L 0.558594 141.980469 Z M 0.558594 6.1875 "/>
</g>
</g>
<mask id="mask-0">
<g filter="url(#filter-remove-color)">
<use xlink:href="#source-7" transform="matrix(1, 0, 0, 1, 1, 0)"/>
</g>
</mask>
<clipPath id="clip-4">
<path clip-rule="nonzero" d="M 0.558594 6 L 296 6 L 296 46 L 0.558594 46 Z M 0.558594 6 "/>
</clipPath>
<clipPath id="clip-5">
<rect x="0" y="0" width="949" height="162"/>
</clipPath>
<g id="source-6" clip-path="url(#clip-5)">
<path fill-rule="nonzero" fill="rgb(100%,100%,100%)" fill-opacity="1" d="M 161.320312 60.859375 L 169.449219 86.0625 L 148.433594 70.792969 L 148.417969 70.78125 L 148.375 70.808594 L 148.328125 70.78125 L 148.316406 70.792969 L 127.296875 86.0625 L 135.425781 60.859375 L 123.542969 52.210938 L 28.042969 52.210938 L 41.039062 61.648438 C 44.609375 64.230469 48.894531 65.632812 53.300781 65.632812 L 119.765625 65.632812 L 117.480469 72.703125 L 55.507812 72.703125 L 68.503906 82.140625 C 72.074219 84.726562 77.832031 86.128906 82.238281 86.128906 L 127.171875 86.128906 L 98.890625 105.25 L 111.207031 114.460938 L 112.523438 113.496094 L 112.535156 113.507812 L 128.535156 101.820312 L 121.320312 122.023438 L 131.957031 130.179688 L 141.988281 102.058594 L 141.988281 137.410156 L 148.003906 141.976562 L 154.023438 137.410156 L 154.023438 102.058594 L 164.054688 130.179688 L 174.691406 122.023438 L 167.222656 101.113281 L 184.199219 113.511719 L 184.207031 113.5 L 185.527344 114.464844 L 197.84375 105.253906 L 169.558594 86.132812 L 214.492188 86.132812 C 218.898438 86.132812 224.660156 84.730469 228.230469 82.144531 L 241.226562 72.707031 L 179.25 72.707031 L 176.964844 65.636719 L 242.695312 65.636719 C 247.101562 65.636719 251.386719 64.234375 254.957031 61.652344 L 267.957031 52.214844 L 173.195312 52.214844 L 161.316406 60.863281 Z M 161.320312 60.859375 "/>
<g clip-path="url(#clip-4)">
<path fill-rule="nonzero" fill="rgb(100%,100%,100%)" fill-opacity="1" d="M 191.140625 31.703125 L 191.144531 31.710938 L 175.292969 31.710938 L 175.292969 31.703125 L 166.457031 31.703125 L 166.457031 31.710938 L 164.269531 24.953125 L 173.097656 24.953125 L 169.058594 12.507812 L 159.882812 11.460938 L 158.828125 8.214844 C 158.433594 7.007812 157.308594 6.1875 156.035156 6.1875 L 140.789062 6.1875 C 139.515625 6.1875 138.390625 7.011719 137.996094 8.214844 L 130.367188 31.703125 L 0.558594 31.703125 L 13.554688 41.140625 C 17.125 43.722656 21.414062 45.128906 25.820312 45.128906 L 140.132812 45.128906 L 148.421875 19.613281 L 156.710938 45.128906 L 270.378906 45.128906 C 274.320312 45.128906 278.179688 44.015625 281.519531 41.902344 L 295.472656 31.703125 Z M 191.140625 31.703125 "/>
</g>
</g>
</defs>
<path fill-rule="nonzero" fill="rgb(100%,100%,100%)" fill-opacity="1" d="M 916.898438 52.074219 L 913.125 52.074219 L 913.125 38.640625 L 906.863281 38.640625 L 906.863281 35.25 L 923.164062 35.25 L 923.164062 38.640625 L 916.898438 38.640625 Z M 916.898438 52.074219 "/>
<g clip-path="url(#clip-0)">
<path fill-rule="nonzero" fill="rgb(100%,100%,100%)" fill-opacity="1" d="M 931.558594 52.074219 L 927.785156 52.074219 L 927.785156 35.25 L 932.890625 35.25 L 936.839844 43.539062 L 938.425781 47.480469 L 938.703125 47.480469 L 940.238281 43.539062 L 944.0625 35.25 L 949.191406 35.25 L 949.191406 52.074219 L 945.417969 52.074219 L 945.417969 43.539062 L 945.546875 40.902344 L 945.269531 40.902344 L 944.289062 43.539062 L 940.765625 51.070312 L 936.1875 51.070312 L 932.664062 43.539062 L 931.683594 40.902344 L 931.40625 40.902344 L 931.558594 43.539062 Z M 931.558594 52.074219 "/>
</g>
<path fill-rule="nonzero" fill="rgb(100%,100%,100%)" fill-opacity="1" d="M 351.308594 124.636719 C 320.628906 124.636719 302.457031 106.730469 302.457031 79.210938 C 302.457031 51.6875 320.628906 33.78125 351.308594 33.78125 C 382.78125 33.78125 400.6875 51.6875 400.6875 79.210938 C 400.6875 106.730469 382.78125 124.636719 351.308594 124.636719 Z M 351.308594 100.9375 C 369.21875 100.9375 374.355469 96.722656 374.355469 79.210938 C 374.355469 61.695312 369.21875 57.484375 351.308594 57.484375 C 333.402344 57.484375 328.792969 61.695312 328.792969 79.210938 C 328.792969 96.722656 333.402344 100.9375 351.308594 100.9375 Z M 351.308594 100.9375 "/>
<path fill-rule="nonzero" fill="rgb(100%,100%,100%)" fill-opacity="1" d="M 431.78125 123.320312 L 399.390625 123.320312 L 432.703125 80 L 432.703125 78.289062 L 399.390625 35.097656 L 431.78125 35.097656 L 453.113281 63.671875 L 454.824219 63.671875 L 474.972656 35.097656 L 507.363281 35.097656 L 474.183594 78.8125 L 474.183594 80.527344 L 507.363281 123.320312 L 474.972656 123.320312 L 453.773438 94.617188 L 452.0625 94.617188 Z M 431.78125 123.320312 "/>
<path fill-rule="nonzero" fill="rgb(100%,100%,100%)" fill-opacity="1" d="M 539.335938 123.320312 L 514.582031 123.320312 L 514.582031 35.097656 L 593.457031 35.097656 L 593.457031 57.351562 L 539.335938 57.351562 L 539.335938 70.519531 L 591.480469 70.519531 L 591.480469 92.640625 L 539.335938 92.640625 Z M 539.335938 123.320312 "/>
<path fill-rule="nonzero" fill="rgb(100%,100%,100%)" fill-opacity="1" d="M 652.109375 124.636719 C 621.429688 124.636719 603.257812 106.730469 603.257812 79.210938 C 603.257812 51.6875 621.429688 33.78125 652.109375 33.78125 C 683.582031 33.78125 701.488281 51.6875 701.488281 79.210938 C 701.488281 106.730469 683.582031 124.636719 652.109375 124.636719 Z M 652.109375 100.9375 C 670.019531 100.9375 675.152344 96.722656 675.152344 79.210938 C 675.152344 61.695312 670.019531 57.484375 652.109375 57.484375 C 634.203125 57.484375 629.59375 61.695312 629.59375 79.210938 C 629.59375 96.722656 634.203125 100.9375 652.109375 100.9375 Z M 652.109375 100.9375 "/>
<path fill-rule="nonzero" fill="rgb(100%,100%,100%)" fill-opacity="1" d="M 737.453125 123.320312 L 712.699219 123.320312 L 712.699219 35.097656 L 764.183594 35.097656 C 787.492188 35.097656 799.738281 44.839844 799.738281 62.089844 C 799.738281 76.050781 792.757812 84.34375 775.902344 86.453125 L 775.902344 87.769531 C 784.988281 90.136719 787.886719 94.484375 791.179688 101.199219 L 802.105469 123.320312 L 773.535156 123.320312 L 763 101.726562 C 759.839844 95.140625 757.207031 93.296875 747.59375 93.296875 L 737.453125 93.296875 Z M 737.453125 57.351562 L 737.453125 74.863281 L 763.921875 74.863281 C 771.164062 74.863281 773.796875 73.546875 773.796875 66.042969 C 773.796875 59.0625 771.164062 57.351562 763.921875 57.351562 Z M 737.453125 57.351562 "/>
<path fill-rule="nonzero" fill="rgb(100%,100%,100%)" fill-opacity="1" d="M 856.75 123.320312 L 812.113281 123.320312 L 812.113281 35.097656 L 856.75 35.097656 C 885.851562 35.097656 904.285156 51.292969 904.285156 79.210938 C 904.285156 107.125 885.851562 123.320312 856.75 123.320312 Z M 856.75 57.351562 L 836.867188 57.351562 L 836.867188 101.066406 L 856.75 101.066406 C 872.421875 101.066406 877.820312 99.09375 877.820312 79.210938 C 877.820312 59.324219 872.421875 57.351562 856.75 57.351562 Z M 856.75 57.351562 "/>
<g clip-path="url(#clip-1)">
<g mask="url(#mask-0)">
<use xlink:href="#source-6" transform="matrix(1, 0, 0, 1, 1, 0)"/>
</g>
</g>
</svg>
